<svg width="112" height="48" viewBox="0 0 112 48" fill="none" xmlns="http://www.w3.org/2000/svg">
<g clip-path="url(#clip0_442_135)">
<rect x="64" y="-2" width="48" height="48" fill="white"/>
<path d="M64 22V46H88H112V22V-2H88H64V22ZM85.84 2.70769C90.6954 3.55692 94.2954 5.55077 96.16 8.41231C96.5477 9.02154 96.8615 9.57539 96.8615 9.64923C96.8615 9.72308 96.1785 9.29846 95.3477 8.70769C93.4277 7.32308 90.9908 6.10462 88.8308 5.45846C87.3723 5.03385 86.7815 4.96 83.9385 4.88615C81.7046 4.83077 80.1908 4.88615 79.0462 5.07077C78.1415 5.21846 77.3662 5.31077 77.3292 5.29231C77.3108 5.27385 78.2338 4.62769 79.36 3.85231L81.4462 2.44923H82.8308C83.5877 2.43077 84.9354 2.56 85.84 2.70769ZM96.0862 4.75692C97.3415 5.56923 99.76 9.72308 99.9446 11.3662C100.074 12.3815 99.76 12.5108 99.4462 11.5692C99.04 10.3138 97.3415 8.04308 95.3662 6.04923C94.2585 4.94154 93.3538 4.01846 93.3538 3.98154C93.3538 3.85231 95.7169 4.51692 96.0862 4.75692ZM99.7231 5.80923L101.938 6.95385L102.622 8.24615C104.505 11.8277 105.391 16.5538 104.782 19.8954C104.578 21.0031 103.434 23.6615 103.157 23.6615C103.065 23.6615 103.065 23.3108 103.157 22.8677C103.452 21.3723 103.342 17.2185 102.972 15.4092C102.382 12.5477 100.812 9.35385 98.4862 6.28923C97.8031 5.38462 97.2862 4.64615 97.3785 4.64615C97.4523 4.66462 98.5046 5.18154 99.7231 5.80923ZM83.92 6.21539C84.4738 6.36308 85.0462 6.60308 85.1938 6.75077C85.4154 6.97231 85.2123 6.99077 83.5508 6.91692C81.4646 6.82462 79.1754 7.17539 76.4062 8.06154C75.6308 8.30154 74.9846 8.48615 74.9477 8.44923C74.9108 8.43077 75.2985 7.96923 75.7785 7.45231C76.48 6.65846 76.8308 6.43692 77.6615 6.23385C79.0092 5.88308 82.6277 5.86462 83.92 6.21539ZM81.2615 8.13539C81.6123 8.28308 81.6123 8.28308 81.1692 8.43077C80.1354 8.74462 77.2923 10.2769 75.9262 11.2554C72.9908 13.3785 70.6092 16.5723 68.8923 20.7077C67.9138 23.0338 68.0062 22.9785 67.8585 21.4462C67.8031 20.6892 67.7292 19.4708 67.7108 18.7692C67.6923 17.4954 67.7108 17.4215 68.6154 16.0554C71.3662 11.8646 75.6862 8.68923 79.3969 8.15385C80.6338 7.96923 80.8185 7.96923 81.2615 8.13539ZM97.1385 22.6092L97.2677 26.8L96.2338 27.28C95.4769 27.6308 94.6646 27.7969 93.04 27.9446L90.8615 28.1477L89.4585 26.7631L88.0554 25.3785L88.2954 20.6892C88.4246 18.1046 88.5354 15.9815 88.5354 15.9631C88.5538 15.9262 88.9969 15.6308 89.5323 15.2615C90.3262 14.7446 90.8246 14.5785 92.3385 14.3385C94.0923 14.0615 95.5692 13.5262 96.4 12.8985C96.8062 12.5846 96.8062 12.5292 97.1385 22.6092ZM84.4923 14.3385C86.3938 14.6708 86.8923 14.8923 87.7046 15.6492L88.2215 16.1477L88.1108 18.0123C88.0554 19.0462 87.9446 21.5015 87.8892 23.4769C87.7785 26.8554 87.7415 27.04 87.4646 26.6154C87.0585 25.9508 85.0277 23.8462 84.8062 23.8462C84.5662 23.8462 84.8246 25.4338 85.2123 26.3569C85.3969 26.7631 85.8031 27.3908 86.1354 27.76C86.6892 28.3877 86.6892 28.4246 86.3015 28.3508C86.0615 28.2954 86.5415 28.4985 87.3538 28.7938C88.1662 29.0892 89.1446 29.4585 89.5323 29.6246L90.2523 29.9385L89.68 29.2738C89.0154 28.5354 89.0523 28.3508 89.8646 28.24C90.3446 28.1662 90.4923 28.24 90.7877 28.72C90.9723 29.0338 91.1938 29.5508 91.2492 29.8646C91.3415 30.3815 91.5262 30.5108 93.0031 31.1938C94.4431 31.84 94.6462 32.0062 94.6462 32.4123V32.8738L93.6862 32.2092C93.1508 31.84 92.2092 31.3046 91.5815 31.0092L90.4554 30.4738L89.6431 30.8246C88.0554 31.5077 86.3385 31.84 84.8985 31.7292C84.1415 31.6738 83.4769 31.5631 83.4215 31.5077C83.0154 31.12 85.6369 30.1046 87.4277 29.9569L88.7938 29.8462L87.6677 29.44C87.04 29.2185 86.5231 29.1077 86.5231 29.2C86.5231 29.5508 84.7508 30.0308 83.3846 30.0308C82 30.0308 79.3231 29.4769 79.3231 29.2C79.3231 28.8677 81.5015 28.6092 83.6062 28.6831C84.8062 28.72 85.7477 28.7385 85.7292 28.72C85.7108 28.7015 85.2862 28.5169 84.7692 28.3138C84.2708 28.1108 83.6985 27.8892 83.4954 27.8154C83.1815 27.6862 83.1815 27.7046 83.3846 28.1108C83.5877 28.48 83.5877 28.5169 83.3662 28.3508C83.2185 28.2215 82.24 28.0923 81.1692 28.0554C79.4708 28 79.12 27.9262 78.4 27.5015C77.9385 27.2431 77.4031 26.8554 77.2185 26.6338L76.8677 26.2462H77.7908C78.6031 26.2462 79.9323 26.4308 80.8 26.6708C80.9477 26.7077 81.0031 26.7077 80.9108 26.6523C80.8369 26.6154 80.8738 26.4862 81.0031 26.3938C81.1877 26.2831 81.1323 26.2646 80.8369 26.3385C80.6154 26.4123 80.4308 26.3938 80.4492 26.3015C80.5046 26.0985 80.32 25.6554 79.5631 24.0677L78.9169 22.7015L79.6 17.9754C79.9692 15.3538 80.3015 13.1385 80.3385 13.0092C80.3938 12.8615 80.8 12.9908 81.5938 13.3969C82.3508 13.7846 83.3662 14.1169 84.4923 14.3385ZM79.6185 14.0246C79.5631 14.3015 79.3046 16.1846 79.0462 18.2154C78.7877 20.2462 78.5292 22.0185 78.4738 22.1662C78.4 22.3877 78.3077 22.3508 77.9938 22.0554L77.6062 21.6677L78.1969 17.6246C78.5292 15.4092 78.8246 13.4892 78.8615 13.36C78.9354 13.1754 79.0462 13.1754 79.3231 13.3231C79.6185 13.4892 79.6923 13.6554 79.6185 14.0246ZM98.5231 21.0215C98.7077 24.9538 98.8 28.24 98.7446 28.2954C98.3385 28.6646 97.0646 28.8308 94.5908 28.8308C93.0585 28.8308 91.8585 28.7938 91.8954 28.7569C91.9323 28.7015 92.8 28.5354 93.8154 28.3692C96.2154 27.9815 96.9538 27.76 97.4338 27.2431L97.8215 26.8185L97.6185 20.4862C97.4154 14.5785 97.4154 14.1354 97.7108 13.9323C97.8954 13.8031 98.08 13.7292 98.1169 13.7846C98.1538 13.8215 98.3569 17.0892 98.5231 21.0215ZM78.1046 14.4123C78.2708 14.6892 77.3477 21.1508 77.1262 21.2246C77.0154 21.2615 77.3846 21.7046 77.9385 22.2215C78.9723 23.1631 78.9723 23.1631 78.8431 24.0123C78.7692 24.4738 78.6954 24.8985 78.6585 24.9354C78.5477 25.0646 77.8277 24.3446 77.4585 23.7723C77.0708 23.1262 77.0523 23.1631 76.7385 25.3046C76.5354 26.7631 76.5538 26.8738 76.8862 27.2246C77.0892 27.4277 77.6985 27.7415 78.2338 27.9262L79.2308 28.2585H78.3077C77.3846 28.2769 75.9815 27.7785 75.7231 27.3538C75.6492 27.2431 75.7785 25.8954 76.0185 24.3815C76.24 22.8677 76.4985 21.7231 76.5538 21.8338C76.6277 21.9446 76.72 21.8338 76.7754 21.5569C76.8308 21.2985 76.7938 21.0215 76.72 20.9477C76.4615 20.6892 77.4954 14.2462 77.7723 14.2462C77.9015 14.2462 78.0492 14.32 78.1046 14.4123ZM99.4646 15.0215C99.4646 15.0585 99.6123 18.2708 99.8154 22.1846C100.111 28.6646 100.129 29.3108 99.8523 29.5138C99.6492 29.68 98.9292 29.7538 97.6185 29.7354C94.8862 29.6985 94.0554 29.4769 96.2154 29.3662C97.2862 29.2923 98.1354 29.1446 98.5969 28.9231L99.3169 28.5723L99.1877 26.2646C99.1323 24.9908 99.0215 21.9262 98.9662 19.4523C98.8554 15.3723 98.8554 14.9846 99.1508 14.9846C99.3169 14.9846 99.4462 15.0031 99.4646 15.0215ZM72.9538 17.6985C71.6985 19.36 70.2031 23.1815 69.8154 25.7477C69.7415 26.2277 69.6123 26.6154 69.5385 26.6154C69.2615 26.6154 68.7631 24.2338 68.8923 23.4954C69.1508 21.9262 71.0892 18.5477 72.4 17.4215C73.4338 16.4985 73.7477 16.6646 72.9538 17.6985ZM106.923 19.1385C107.237 20.3385 107.237 20.3569 106.831 21.6308C106.092 23.9015 103.545 27.5385 102.658 27.5385C102.437 27.5385 102.529 27.3354 103.009 26.6523C104.283 24.9169 105.225 22.5723 106.018 19.1938C106.185 18.4185 106.388 17.8092 106.462 17.8462C106.535 17.8831 106.738 18.4738 106.923 19.1385ZM72.4738 22.2954C72.2154 24.1969 72.3446 26.8185 72.7692 28.9231C73.3785 31.8031 74.8923 34.8492 77.3292 38.0615L78.5662 39.6862L76.4062 38.6708C75.2246 38.1169 74.1354 37.5631 73.9877 37.4523C73.84 37.3231 73.3231 36.4 72.8431 35.3846C70.72 30.9169 70.1662 26.3385 71.3662 22.9046C71.6985 21.9446 72.5108 20.4677 72.64 20.6154C72.6769 20.6338 72.6031 21.4092 72.4738 22.2954ZM107.957 24.1046L108.142 26.6338L107.126 28.1662C104.468 32.1538 100.702 35.1077 97.2308 35.92C96.0492 36.1969 93.9262 36.3262 94.1477 36.1046C94.2031 36.0492 94.8862 35.7169 95.6615 35.3846C99.1138 33.8892 102.326 31.2677 104.246 28.3877C105.243 26.9108 107.237 22.9046 107.477 21.9446C107.551 21.6677 107.643 21.4646 107.698 21.52C107.735 21.5569 107.865 22.72 107.957 24.1046ZM78.0677 25.4154C77.9938 25.9877 77.92 26.0615 77.4585 26.0615C76.9046 26.0615 76.8862 26.0431 77.2185 24.4185L77.3108 23.9754L77.7354 24.3815C78.0492 24.6769 78.1231 24.9169 78.0677 25.4154ZM79.6 25.9508C79.9508 26.2277 79.9508 26.2277 79.6185 26.2462C79.2492 26.2462 78.5846 25.7477 78.5846 25.4708C78.5846 25.3046 79.0092 25.4892 79.6 25.9508ZM88.7015 28.6831C88.1292 29.0338 88 28.8308 88.0185 27.6677V26.5231L88.48 27.52C88.8308 28.2954 88.8862 28.5538 88.7015 28.6831ZM76.8123 33.3723C77.6615 35.1631 78.1785 35.8462 80.6708 38.3754L82.7015 40.4246L81.4277 40.1662C80.3938 39.9446 80.0246 39.76 79.4523 39.2062C77.8277 37.6369 76.0185 34.24 76 32.7446C76 32.32 76.0369 31.9692 76.0738 31.9692C76.1108 31.9692 76.4431 32.5969 76.8123 33.3723ZM81.3723 36.2523C83.0523 37.36 85.3785 38.3938 87.4092 38.9292C88.96 39.3354 89.5877 39.4092 92.2462 39.4092C93.9262 39.4277 95.9569 39.3169 96.7508 39.2062C97.5631 39.0769 98.2277 39.0031 98.2646 39.04C98.2831 39.0585 97.3415 39.7231 96.16 40.5169L94 41.9569L92.4308 41.8462C86.5785 41.3846 81.7415 39.1692 79.6738 35.9754C78.7877 34.6092 78.7692 34.3692 79.6 34.9969C79.9508 35.2738 80.7446 35.8277 81.3723 36.2523ZM100.332 36.7692C99.2431 38.0431 98.5415 38.2831 95.7354 38.3938C93.2062 38.4862 91.6 38.2462 90.9169 37.6923C90.5108 37.36 90.5292 37.36 92.4308 37.4523C94.5354 37.5446 96.7138 37.2123 99.4462 36.3262C100.203 36.0862 100.905 35.8831 100.978 35.8646C101.052 35.8462 100.775 36.2523 100.332 36.7692Z" fill="#0040C1"/>
<path d="M64 22V46H88H112V22V-2H88H64V22ZM85.84 2.70769C90.6954 3.55692 94.2954 5.55077 96.16 8.41231C96.5477 9.02154 96.8615 9.57539 96.8615 9.64923C96.8615 9.72308 96.1785 9.29846 95.3477 8.70769C93.4277 7.32308 90.9908 6.10462 88.8308 5.45846C87.3723 5.03385 86.7815 4.96 83.9385 4.88615C81.7046 4.83077 80.1908 4.88615 79.0462 5.07077C78.1415 5.21846 77.3662 5.31077 77.3292 5.29231C77.3108 5.27385 78.2338 4.62769 79.36 3.85231L81.4462 2.44923H82.8308C83.5877 2.43077 84.9354 2.56 85.84 2.70769ZM96.0862 4.75692C97.3415 5.56923 99.76 9.72308 99.9446 11.3662C100.074 12.3815 99.76 12.5108 99.4462 11.5692C99.04 10.3138 97.3415 8.04308 95.3662 6.04923C94.2585 4.94154 93.3538 4.01846 93.3538 3.98154C93.3538 3.85231 95.7169 4.51692 96.0862 4.75692ZM99.7231 5.80923L101.938 6.95385L102.622 8.24615C104.505 11.8277 105.391 16.5538 104.782 19.8954C104.578 21.0031 103.434 23.6615 103.157 23.6615C103.065 23.6615 103.065 23.3108 103.157 22.8677C103.452 21.3723 103.342 17.2185 102.972 15.4092C102.382 12.5477 100.812 9.35385 98.4862 6.28923C97.8031 5.38462 97.2862 4.64615 97.3785 4.64615C97.4523 4.66462 98.5046 5.18154 99.7231 5.80923ZM83.92 6.21539C84.4738 6.36308 85.0462 6.60308 85.1938 6.75077C85.4154 6.97231 85.2123 6.99077 83.5508 6.91692C81.4646 6.82462 79.1754 7.17539 76.4062 8.06154C75.6308 8.30154 74.9846 8.48615 74.9477 8.44923C74.9108 8.43077 75.2985 7.96923 75.7785 7.45231C76.48 6.65846 76.8308 6.43692 77.6615 6.23385C79.0092 5.88308 82.6277 5.86462 83.92 6.21539ZM81.2615 8.13539C81.6123 8.28308 81.6123 8.28308 81.1692 8.43077C80.1354 8.74462 77.2923 10.2769 75.9262 11.2554C72.9908 13.3785 70.6092 16.5723 68.8923 20.7077C67.9138 23.0338 68.0062 22.9785 67.8585 21.4462C67.8031 20.6892 67.7292 19.4708 67.7108 18.7692C67.6923 17.4954 67.7108 17.4215 68.6154 16.0554C71.3662 11.8646 75.6862 8.68923 79.3969 8.15385C80.6338 7.96923 80.8185 7.96923 81.2615 8.13539ZM97.1385 22.6092L97.2677 26.8L96.2338 27.28C95.4769 27.6308 94.6646 27.7969 93.04 27.9446L90.8615 28.1477L89.4585 26.7631L88.0554 25.3785L88.2954 20.6892C88.4246 18.1046 88.5354 15.9815 88.5354 15.9631C88.5538 15.9262 88.9969 15.6308 89.5323 15.2615C90.3262 14.7446 90.8246 14.5785 92.3385 14.3385C94.0923 14.0615 95.5692 13.5262 96.4 12.8985C96.8062 12.5846 96.8062 12.5292 97.1385 22.6092ZM84.4923 14.3385C86.3938 14.6708 86.8923 14.8923 87.7046 15.6492L88.2215 16.1477L88.1108 18.0123C88.0554 19.0462 87.9446 21.5015 87.8892 23.4769C87.7785 26.8554 87.7415 27.04 87.4646 26.6154C87.0585 25.9508 85.0277 23.8462 84.8062 23.8462C84.5662 23.8462 84.8246 25.4338 85.2123 26.3569C85.3969 26.7631 85.8031 27.3908 86.1354 27.76C86.6892 28.3877 86.6892 28.4246 86.3015 28.3508C86.0615 28.2954 86.5415 28.4985 87.3538 28.7938C88.1662 29.0892 89.1446 29.4585 89.5323 29.6246L90.2523 29.9385L89.68 29.2738C89.0154 28.5354 89.0523 28.3508 89.8646 28.24C90.3446 28.1662 90.4923 28.24 90.7877 28.72C90.9723 29.0338 91.1938 29.5508 91.2492 29.8646C91.3415 30.3815 91.5262 30.5108 93.0031 31.1938C94.4431 31.84 94.6462 32.0062 94.6462 32.4123V32.8738L93.6862 32.2092C93.1508 31.84 92.2092 31.3046 91.5815 31.0092L90.4554 30.4738L89.6431 30.8246C88.0554 31.5077 86.3385 31.84 84.8985 31.7292C84.1415 31.6738 83.4769 31.5631 83.4215 31.5077C83.0154 31.12 85.6369 30.1046 87.4277 29.9569L88.7938 29.8462L87.6677 29.44C87.04 29.2185 86.5231 29.1077 86.5231 29.2C86.5231 29.5508 84.7508 30.0308 83.3846 30.0308C82 30.0308 79.3231 29.4769 79.3231 29.2C79.3231 28.8677 81.5015 28.6092 83.6062 28.6831C84.8062 28.72 85.7477 28.7385 85.7292 28.72C85.7108 28.7015 85.2862 28.5169 84.7692 28.3138C84.2708 28.1108 83.6985 27.8892 83.4954 27.8154C83.1815 27.6862 83.1815 27.7046 83.3846 28.1108C83.5877 28.48 83.5877 28.5169 83.3662 28.3508C83.2185 28.2215 82.24 28.0923 81.1692 28.0554C79.4708 28 79.12 27.9262 78.4 27.5015C77.9385 27.2431 77.4031 26.8554 77.2185 26.6338L76.8677 26.2462H77.7908C78.6031 26.2462 79.9323 26.4308 80.8 26.6708C80.9477 26.7077 81.0031 26.7077 80.9108 26.6523C80.8369 26.6154 80.8738 26.4862 81.0031 26.3938C81.1877 26.2831 81.1323 26.2646 80.8369 26.3385C80.6154 26.4123 80.4308 26.3938 80.4492 26.3015C80.5046 26.0985 80.32 25.6554 79.5631 24.0677L78.9169 22.7015L79.6 17.9754C79.9692 15.3538 80.3015 13.1385 80.3385 13.0092C80.3938 12.8615 80.8 12.9908 81.5938 13.3969C82.3508 13.7846 83.3662 14.1169 84.4923 14.3385ZM79.6185 14.0246C79.5631 14.3015 79.3046 16.1846 79.0462 18.2154C78.7877 20.2462 78.5292 22.0185 78.4738 22.1662C78.4 22.3877 78.3077 22.3508 77.9938 22.0554L77.6062 21.6677L78.1969 17.6246C78.5292 15.4092 78.8246 13.4892 78.8615 13.36C78.9354 13.1754 79.0462 13.1754 79.3231 13.3231C79.6185 13.4892 79.6923 13.6554 79.6185 14.0246ZM98.5231 21.0215C98.7077 24.9538 98.8 28.24 98.7446 28.2954C98.3385 28.6646 97.0646 28.8308 94.5908 28.8308C93.0585 28.8308 91.8585 28.7938 91.8954 28.7569C91.9323 28.7015 92.8 28.5354 93.8154 28.3692C96.2154 27.9815 96.9538 27.76 97.4338 27.2431L97.8215 26.8185L97.6185 20.4862C97.4154 14.5785 97.4154 14.1354 97.7108 13.9323C97.8954 13.8031 98.08 13.7292 98.1169 13.7846C98.1538 13.8215 98.3569 17.0892 98.5231 21.0215ZM78.1046 14.4123C78.2708 14.6892 77.3477 21.1508 77.1262 21.2246C77.0154 21.2615 77.3846 21.7046 77.9385 22.2215C78.9723 23.1631 78.9723 23.1631 78.8431 24.0123C78.7692 24.4738 78.6954 24.8985 78.6585 24.9354C78.5477 25.0646 77.8277 24.3446 77.4585 23.7723C77.0708 23.1262 77.0523 23.1631 76.7385 25.3046C76.5354 26.7631 76.5538 26.8738 76.8862 27.2246C77.0892 27.4277 77.6985 27.7415 78.2338 27.9262L79.2308 28.2585H78.3077C77.3846 28.2769 75.9815 27.7785 75.7231 27.3538C75.6492 27.2431 75.7785 25.8954 76.0185 24.3815C76.24 22.8677 76.4985 21.7231 76.5538 21.8338C76.6277 21.9446 76.72 21.8338 76.7754 21.5569C76.8308 21.2985 76.7938 21.0215 76.72 20.9477C76.4615 20.6892 77.4954 14.2462 77.7723 14.2462C77.9015 14.2462 78.0492 14.32 78.1046 14.4123ZM99.4646 15.0215C99.4646 15.0585 99.6123 18.2708 99.8154 22.1846C100.111 28.6646 100.129 29.3108 99.8523 29.5138C99.6492 29.68 98.9292 29.7538 97.6185 29.7354C94.8862 29.6985 94.0554 29.4769 96.2154 29.3662C97.2862 29.2923 98.1354 29.1446 98.5969 28.9231L99.3169 28.5723L99.1877 26.2646C99.1323 24.9908 99.0215 21.9262 98.9662 19.4523C98.8554 15.3723 98.8554 14.9846 99.1508 14.9846C99.3169 14.9846 99.4462 15.0031 99.4646 15.0215ZM72.9538 17.6985C71.6985 19.36 70.2031 23.1815 69.8154 25.7477C69.7415 26.2277 69.6123 26.6154 69.5385 26.6154C69.2615 26.6154 68.7631 24.2338 68.8923 23.4954C69.1508 21.9262 71.0892 18.5477 72.4 17.4215C73.4338 16.4985 73.7477 16.6646 72.9538 17.6985ZM106.923 19.1385C107.237 20.3385 107.237 20.3569 106.831 21.6308C106.092 23.9015 103.545 27.5385 102.658 27.5385C102.437 27.5385 102.529 27.3354 103.009 26.6523C104.283 24.9169 105.225 22.5723 106.018 19.1938C106.185 18.4185 106.388 17.8092 106.462 17.8462C106.535 17.8831 106.738 18.4738 106.923 19.1385ZM72.4738 22.2954C72.2154 24.1969 72.3446 26.8185 72.7692 28.9231C73.3785 31.8031 74.8923 34.8492 77.3292 38.0615L78.5662 39.6862L76.4062 38.6708C75.2246 38.1169 74.1354 37.5631 73.9877 37.4523C73.84 37.3231 73.3231 36.4 72.8431 35.3846C70.72 30.9169 70.1662 26.3385 71.3662 22.9046C71.6985 21.9446 72.5108 20.4677 72.64 20.6154C72.6769 20.6338 72.6031 21.4092 72.4738 22.2954ZM107.957 24.1046L108.142 26.6338L107.126 28.1662C104.468 32.1538 100.702 35.1077 97.2308 35.92C96.0492 36.1969 93.9262 36.3262 94.1477 36.1046C94.2031 36.0492 94.8862 35.7169 95.6615 35.3846C99.1138 33.8892 102.326 31.2677 104.246 28.3877C105.243 26.9108 107.237 22.9046 107.477 21.9446C107.551 21.6677 107.643 21.4646 107.698 21.52C107.735 21.5569 107.865 22.72 107.957 24.1046ZM78.0677 25.4154C77.9938 25.9877 77.92 26.0615 77.4585 26.0615C76.9046 26.0615 76.8862 26.0431 77.2185 24.4185L77.3108 23.9754L77.7354 24.3815C78.0492 24.6769 78.1231 24.9169 78.0677 25.4154ZM79.6 25.9508C79.9508 26.2277 79.9508 26.2277 79.6185 26.2462C79.2492 26.2462 78.5846 25.7477 78.5846 25.4708C78.5846 25.3046 79.0092 25.4892 79.6 25.9508ZM88.7015 28.6831C88.1292 29.0338 88 28.8308 88.0185 27.6677V26.5231L88.48 27.52C88.8308 28.2954 88.8862 28.5538 88.7015 28.6831ZM76.8123 33.3723C77.6615 35.1631 78.1785 35.8462 80.6708 38.3754L82.7015 40.4246L81.4277 40.1662C80.3938 39.9446 80.0246 39.76 79.4523 39.2062C77.8277 37.6369 76.0185 34.24 76 32.7446C76 32.32 76.0369 31.9692 76.0738 31.9692C76.1108 31.9692 76.4431 32.5969 76.8123 33.3723ZM81.3723 36.2523C83.0523 37.36 85.3785 38.3938 87.4092 38.9292C88.96 39.3354 89.5877 39.4092 92.2462 39.4092C93.9262 39.4277 95.9569 39.3169 96.7508 39.2062C97.5631 39.0769 98.2277 39.0031 98.2646 39.04C98.2831 39.0585 97.3415 39.7231 96.16 40.5169L94 41.9569L92.4308 41.8462C86.5785 41.3846 81.7415 39.1692 79.6738 35.9754C78.7877 34.6092 78.7692 34.3692 79.6 34.9969C79.9508 35.2738 80.7446 35.8277 81.3723 36.2523ZM100.332 36.7692C99.2431 38.0431 98.5415 38.2831 95.7354 38.3938C93.2062 38.4862 91.6 38.2462 90.9169 37.6923C90.5108 37.36 90.5292 37.36 92.4308 37.4523C94.5354 37.5446 96.7138 37.2123 99.4462 36.3262C100.203 36.0862 100.905 35.8831 100.978 35.8646C101.052 35.8462 100.775 36.2523 100.332 36.7692Z" fill="#0040C1"/>
</g>
<g clip-path="url(#clip1_442_135)">
<path d="M3.73438 41.429L9.34361 48L14.2586 43.6904L12.6628 41.8207L9.05492 44.983L6.63197 42.1443L10.2398 38.9821L8.64931 37.1194L3.73438 41.429Z" fill="#E4E4E4"/>
<path d="M5.76774 34.7058L7.71601 34.1234L8.38019 36.5143L2.15459 38.3735L0.707563 33.1527C0.0664058 30.837 0.796121 29.9083 1.94737 29.5672L2.08198 29.527C3.2102 29.1894 4.35437 29.5865 4.98844 31.8777L5.76774 34.7058ZM4.2109 35.1711L3.50244 32.628C3.35012 32.0806 3.05788 31.9039 2.71428 32.0071H2.68948C2.33525 32.1138 2.18293 32.4041 2.33525 32.9673L3.04371 35.5104L4.2109 35.1711Z" fill="#E4E4E4"/>
<path d="M0.145689 22.7949C0.677035 18.6078 2.72626 18.2947 3.93241 18.4329L4.18923 18.4626C5.38653 18.6008 7.3348 19.3633 6.7946 23.561L6.745 23.9615C6.21366 28.1591 4.12015 28.467 2.92286 28.3341L2.65718 28.2921C1.45811 28.1591 -0.445876 27.3948 0.0943257 23.1884L0.145689 22.7949ZM3.66143 21.0039C2.9813 20.927 2.08864 21.275 1.84245 23.1954C1.59095 25.1491 2.3738 25.6563 3.05392 25.7333L3.15665 25.7455C3.82969 25.8225 4.79142 25.4814 5.03761 23.5627C5.2838 21.6441 4.47261 21.0984 3.78186 21.0179L3.66143 21.0039Z" fill="#E4E4E4"/>
<path d="M4.68815 11.4035L6.21489 9.42188L6.67716 9.78393L7.68317 8.47916C8.946 6.83859 10.4515 6.35411 11.7232 7.35455L11.833 7.44025C13.1135 8.43894 13.0515 10.0218 11.7834 11.6676L10.7721 12.9794L11.4203 13.4848L9.89357 15.4665L9.24533 14.961L8.23577 16.2658C6.96763 17.9116 5.46038 18.3646 4.17983 17.3677L4.07533 17.289C2.80896 16.299 2.88866 14.7074 4.15149 13.0686L5.15751 11.7638L4.68815 11.4035ZM5.75084 13.658C5.17522 14.4031 5.22835 14.9715 5.65874 15.3056L5.69948 15.3388C6.13518 15.6781 6.70727 15.6012 7.28289 14.8543L7.97187 13.9466L6.44337 12.7503L5.75084 13.658ZM9.4862 11.9929L10.184 11.0869C10.7597 10.3401 10.6924 9.76294 10.2567 9.42188L10.2159 9.3904C9.78553 9.05459 9.22585 9.14379 8.65199 9.89062L7.94353 10.7984L9.4862 11.9929Z" fill="#E4E4E4"/>
<path d="M18.6154 1.11768L19.2513 2.56761L14.9385 4.55799L15.2644 5.29957L19.4886 3.34942L20.1227 4.79061L15.8967 6.74076L16.2545 7.55405L20.6292 5.53394L21.2793 7.01711L14.6799 10.0639L12.0781 4.13473L18.6154 1.11768Z" fill="#E4E4E4"/>
<path d="M25.6279 6.79844C21.664 6.99608 20.9963 4.98821 20.9556 3.7534V3.49804C20.9131 2.25449 21.3842 0.237878 25.41 0.0332431L25.7483 0.0157529C29.6696 -0.181886 30.3019 1.58987 30.3303 2.4259V2.53958L27.771 2.67076C27.7125 2.49586 27.4858 1.68431 25.6119 1.77876C23.8408 1.86796 23.4866 2.68475 23.5025 3.41234V3.51728C23.5255 4.21689 23.9913 5.11763 25.7253 5.03018C27.6257 4.93399 27.7869 4.00351 27.8153 3.85135L30.3657 3.72367V3.86359C30.3941 4.71361 29.8485 6.58506 25.9609 6.78095L25.6279 6.79844Z" fill="#E4E4E4"/>
<path d="M34.0096 8.53346C30.5612 6.60954 31.0411 4.52121 31.6469 3.43333L31.7726 3.2112C32.3819 2.11807 33.8254 0.631401 37.327 2.58855L37.621 2.75296C41.034 4.65939 40.6514 6.51684 40.237 7.25668L40.1821 7.35637L37.9557 6.11107C37.9965 5.93617 38.2267 5.11063 36.5973 4.19939C35.0493 3.33538 34.3266 3.84959 33.9689 4.48973L33.9175 4.58243C33.5739 5.19808 33.4995 6.21776 35.0103 7.06079C36.6628 7.98427 37.2809 7.26892 37.3836 7.15523L39.5994 8.39528L39.5303 8.51946C39.1123 9.26629 37.683 10.5886 34.3001 8.69437L34.0096 8.53346Z" fill="#E4E4E4"/>
<path d="M44.4392 14.7846L39.046 12.9201L37.9922 10.6866L43.8299 7.80249L44.882 10.036L41.2104 11.8515L46.6106 13.7107L47.6627 15.9459L41.8285 18.8283L40.7747 16.5948L44.4392 14.7846Z" fill="#E4E4E4"/>
<path d="M47.897 24.4163C47.456 28.614 45.4174 28.9725 44.2148 28.8623L43.9562 28.8378C42.7554 28.7294 40.7929 28.0123 41.2357 23.8112L41.2765 23.4176C41.7193 19.206 43.7951 18.8562 44.9959 18.9646L45.2545 18.9891C46.4624 19.0993 48.3823 19.8112 47.9395 24.0228L47.897 24.4163ZM44.4238 26.2878C45.1057 26.3507 45.9895 25.9799 46.195 24.0578C46.4004 22.1006 45.6069 21.6092 44.9268 21.5532L44.8223 21.5427C44.1493 21.4815 43.1964 21.8453 42.9945 23.7674C42.7926 25.6896 43.6162 26.2161 44.3069 26.2773L44.4238 26.2878Z" fill="#E4E4E4"/>
<path d="M45.7046 32.6927L44.0326 34.5554L42.3535 33.018L39.6171 36.0648L41.2979 37.6022L39.633 39.4561L34.8828 35.1116L36.5477 33.2559L38.3543 34.9087L41.0889 31.8619L39.2824 30.2091L40.9526 28.3481L45.7046 32.6927Z" fill="#E4E4E4"/>
<path d="M28.3248 37.5462L31.9485 36.7941L32.2426 35.6625L34.6991 35.1553L32.7509 42.2003L29.4937 42.8754L24.9844 37.1666L27.6411 36.6175L28.3248 37.5462ZM30.877 40.962L31.5058 38.5466L29.3999 38.9839L30.877 40.962Z" fill="#E4E4E4"/>
<path d="M17.0839 37.3606L19.2093 38.968C20.7696 36.8692 21.4037 36.3165 22.0165 36.0734C22.6293 35.8303 23.2563 35.9125 24.188 36.6226L24.822 37.1L23.7044 38.599L23.6017 38.5202C23.3254 38.3121 23.1448 38.2194 22.9074 38.2946C22.5248 38.4013 22.0218 38.9278 19.9815 41.6615L14.1172 37.2295L18.0403 31.9824L19.9992 33.4621L17.0839 37.3606Z" fill="#E4E4E4"/>
<path d="M13.5039 25.0633L17.6059 29.0441L17.6342 31.5347L11.1784 31.7201L11.1482 29.2295L15.2095 29.1123L11.1004 25.1316L11.0703 22.641L17.5279 22.4556L17.5563 24.9462L13.5039 25.0633Z" fill="#E4E4E4"/>
<path d="M16.625 17.9118L14.3862 19.6276L13.3359 18.2126L19.7936 13.2646L20.8421 14.6779L18.6033 16.3936L21.4035 20.161L19.4216 21.6774L16.625 17.9118Z" fill="#E4E4E4"/>
<path d="M30.0593 12.6978L29.9884 14.2946L25.2789 14.1599L25.2417 14.975L29.8573 15.1079L29.7865 16.696L25.1726 16.5631L25.1337 17.4586L29.9122 17.595L29.8396 19.2286L22.6328 19.0222L22.9197 12.4949L30.0593 12.6978Z" fill="#E4E4E4"/>
<path d="M34.3262 17.4972L32.5603 15.3476L33.9224 14.1968L39.018 20.3953L37.6559 21.5461L35.8883 19.3984L32.2575 22.4661L30.6953 20.5667L34.3262 17.4972Z" fill="#E4E4E4"/>
</g>
<defs>
<clipPath id="clip0_442_135">
<rect width="48" height="48" fill="white" transform="translate(64)"/>
</clipPath>
<clipPath id="clip1_442_135">
<rect width="48" height="48" fill="white"/>
</clipPath>
</defs>
</svg>
