<svg width="64" height="32" viewBox="0 0 64 32" fill="none" xmlns="http://www.w3.org/2000/svg">
<g clip-path="url(#clip0_451_23)">
<rect x="35.5555" y="-2" width="48" height="48" fill="white"/>
<path d="M35.5555 15.5V32H49.7778H64V15.5V-1H49.7778H35.5555V15.5ZM48.4978 2.23654C51.375 2.82039 53.5084 4.19115 54.6133 6.15846C54.8431 6.57731 55.029 6.95808 55.029 7.00885C55.029 7.05962 54.6243 6.76769 54.132 6.36154C52.9942 5.40962 51.5501 4.57192 50.2701 4.12769C49.4058 3.83577 49.0557 3.785 47.3709 3.73423C46.0472 3.69615 45.1501 3.73423 44.4718 3.86115C43.9357 3.96269 43.4762 4.02615 43.4543 4.01346C43.4434 4.00077 43.9904 3.55654 44.6578 3.02346L45.894 2.05885H46.7145C47.1631 2.04615 47.9617 2.135 48.4978 2.23654ZM54.5696 3.64539C55.3135 4.20385 56.7467 7.05962 56.8561 8.18923C56.9326 8.88731 56.7467 8.97616 56.5607 8.32885C56.32 7.46577 55.3135 5.90462 54.1429 4.53385C53.4865 3.77231 52.9504 3.13769 52.9504 3.11231C52.9504 3.02346 54.3508 3.48039 54.5696 3.64539ZM56.7248 4.36885L58.0376 5.15577L58.4424 6.04423C59.5583 8.50654 60.0834 11.7558 59.7224 14.0531C59.602 14.8146 58.9237 16.6423 58.7596 16.6423C58.7049 16.6423 58.7049 16.4012 58.7596 16.0965C58.9347 15.0685 58.869 12.2127 58.6502 10.9688C58.3002 9.00154 57.3702 6.80577 55.9918 4.69885C55.587 4.07692 55.2807 3.56923 55.3354 3.56923C55.3791 3.58192 56.0027 3.93731 56.7248 4.36885ZM47.36 4.64808C47.6882 4.74962 48.0273 4.91462 48.1149 5.01615C48.2461 5.16846 48.1258 5.18115 47.1412 5.13038C45.9049 5.06692 44.5484 5.30808 42.9073 5.91731C42.4478 6.08231 42.0649 6.20923 42.0431 6.18385C42.0212 6.17115 42.2509 5.85385 42.5354 5.49846C42.9511 4.95269 43.159 4.80038 43.6513 4.66077C44.4499 4.41962 46.5942 4.40692 47.36 4.64808ZM45.7846 5.96808C45.9925 6.06962 45.9925 6.06962 45.7299 6.17115C45.1173 6.38692 43.4325 7.44039 42.6229 8.11308C40.8834 9.57269 39.4721 11.7685 38.4547 14.6115C37.8749 16.2108 37.9296 16.1727 37.842 15.1192C37.8092 14.5988 37.7655 13.7612 37.7545 13.2788C37.7436 12.4031 37.7545 12.3523 38.2906 11.4131C39.9207 8.53192 42.4807 6.34885 44.6796 5.98077C45.4126 5.85385 45.522 5.85385 45.7846 5.96808ZM55.1931 15.9188L55.2697 18.8L54.6571 19.13C54.2085 19.3712 53.7272 19.4854 52.7644 19.5869L51.4735 19.7265L50.642 18.7746L49.8106 17.8227L49.9528 14.5988C50.0294 12.8219 50.095 11.3623 50.095 11.3496C50.106 11.3242 50.3685 11.1212 50.6858 10.8673C51.1562 10.5119 51.4516 10.3977 52.3487 10.2327C53.388 10.0423 54.2632 9.67423 54.7555 9.24269C54.9962 9.02692 54.9962 8.98885 55.1931 15.9188ZM47.6991 10.2327C48.826 10.4612 49.1214 10.6135 49.6027 11.1338L49.909 11.4765L49.8434 12.7585C49.8106 13.4692 49.7449 15.1573 49.7121 16.5154C49.6465 18.8381 49.6246 18.965 49.4605 18.6731C49.2198 18.2162 48.0164 16.7692 47.8851 16.7692C47.7429 16.7692 47.8961 17.8608 48.1258 18.4954C48.2352 18.7746 48.4759 19.2062 48.6728 19.46C49.001 19.8915 49.001 19.9169 48.7713 19.8662C48.629 19.8281 48.9135 19.9677 49.3949 20.1708C49.8762 20.3738 50.4561 20.6277 50.6858 20.7419L51.1125 20.9577L50.7733 20.5008C50.3795 19.9931 50.4014 19.8662 50.8827 19.79C51.1672 19.7392 51.2547 19.79 51.4297 20.12C51.5391 20.3358 51.6704 20.6912 51.7032 20.9069C51.7579 21.2623 51.8673 21.3512 52.7426 21.8208C53.5959 22.265 53.7162 22.3792 53.7162 22.6585V22.9758L53.1473 22.5188C52.8301 22.265 52.2721 21.8969 51.9002 21.6938L51.2328 21.3258L50.7514 21.5669C49.8106 22.0365 48.7931 22.265 47.9398 22.1888C47.4913 22.1508 47.0974 22.0746 47.0646 22.0365C46.8239 21.77 48.3774 21.0719 49.4386 20.9704L50.2482 20.8942L49.5808 20.615C49.2089 20.4627 48.9026 20.3865 48.9026 20.45C48.9026 20.6912 47.8523 21.0212 47.0427 21.0212C46.2222 21.0212 44.6359 20.6404 44.6359 20.45C44.6359 20.2215 45.9268 20.0438 47.174 20.0946C47.8851 20.12 48.4431 20.1327 48.4321 20.12C48.4212 20.1073 48.1696 19.9804 47.8632 19.8408C47.5679 19.7012 47.2287 19.5488 47.1084 19.4981C46.9224 19.4092 46.9224 19.4219 47.0427 19.7012C47.1631 19.955 47.1631 19.9804 47.0318 19.8662C46.9443 19.7773 46.3644 19.6885 45.7299 19.6631C44.7234 19.625 44.5155 19.5742 44.0889 19.2823C43.8154 19.1046 43.4981 18.8381 43.3887 18.6858L43.1808 18.4192H43.7278C44.2092 18.4192 44.9969 18.5462 45.5111 18.7112C45.5986 18.7365 45.6314 18.7365 45.5767 18.6985C45.533 18.6731 45.5549 18.5842 45.6314 18.5208C45.7408 18.4446 45.708 18.4319 45.533 18.4827C45.4017 18.5335 45.2923 18.5208 45.3032 18.4573C45.3361 18.3177 45.2267 18.0131 44.7781 16.9215L44.3952 15.9823L44.8 12.7331C45.0188 10.9308 45.2157 9.40769 45.2376 9.31885C45.2704 9.21731 45.5111 9.30616 45.9815 9.58539C46.4301 9.85192 47.0318 10.0804 47.6991 10.2327ZM44.8109 10.0169C44.7781 10.2073 44.6249 11.5019 44.4718 12.8981C44.3186 14.2942 44.1655 15.5127 44.1326 15.6142C44.0889 15.7665 44.0342 15.7412 43.8482 15.5381L43.6184 15.2715L43.9685 12.4919C44.1655 10.9688 44.3405 9.64885 44.3624 9.56C44.4061 9.43308 44.4718 9.43308 44.6359 9.53462C44.8109 9.64885 44.8547 9.76308 44.8109 10.0169ZM56.0137 14.8273C56.1231 17.5308 56.1778 19.79 56.1449 19.8281C55.9043 20.0819 55.1494 20.1962 53.6834 20.1962C52.7754 20.1962 52.0643 20.1708 52.0861 20.1454C52.108 20.1073 52.6222 19.9931 53.2239 19.8788C54.6461 19.6123 55.0837 19.46 55.3682 19.1046L55.5979 18.8127L55.4776 14.4592C55.3573 10.3977 55.3573 10.0931 55.5323 9.95346C55.6417 9.86462 55.7511 9.81385 55.773 9.85192C55.7949 9.87731 55.9152 12.1238 56.0137 14.8273ZM43.9138 10.2835C44.0123 10.4738 43.4653 14.9162 43.334 14.9669C43.2684 14.9923 43.4872 15.2969 43.8154 15.6523C44.428 16.2996 44.428 16.2996 44.3514 16.8835C44.3077 17.2008 44.2639 17.4927 44.242 17.5181C44.1764 17.6069 43.7497 17.1119 43.5309 16.7185C43.3012 16.2742 43.2902 16.2996 43.1043 17.7719C42.9839 18.7746 42.9949 18.8508 43.1918 19.0919C43.3121 19.2315 43.6731 19.4473 43.9904 19.5742L44.5812 19.8027H44.0342C43.4872 19.8154 42.6557 19.4727 42.5026 19.1808C42.4588 19.1046 42.5354 18.1781 42.6776 17.1373C42.8089 16.0965 42.962 15.3096 42.9949 15.3858C43.0386 15.4619 43.0933 15.3858 43.1261 15.1954C43.159 15.0177 43.1371 14.8273 43.0933 14.7765C42.9402 14.5988 43.5528 10.1692 43.7169 10.1692C43.7935 10.1692 43.881 10.22 43.9138 10.2835ZM56.5716 10.7023C56.5716 10.7277 56.6591 12.9362 56.7795 15.6269C56.9545 20.0819 56.9655 20.5262 56.8014 20.6658C56.681 20.78 56.2543 20.8308 55.4776 20.8181C53.8584 20.7927 53.3661 20.6404 54.6461 20.5642C55.2807 20.5135 55.7839 20.4119 56.0574 20.2596L56.4841 20.0185L56.4075 18.4319C56.3747 17.5562 56.309 15.4492 56.2762 13.7485C56.2106 10.9435 56.2106 10.6769 56.3856 10.6769C56.4841 10.6769 56.5607 10.6896 56.5716 10.7023ZM40.8615 12.5427C40.1176 13.685 39.2314 16.3123 39.0017 18.0765C38.9579 18.4065 38.8814 18.6731 38.8376 18.6731C38.6735 18.6731 38.3781 17.0358 38.4547 16.5281C38.6078 15.4492 39.7566 13.1265 40.5333 12.3523C41.146 11.7177 41.332 11.8319 40.8615 12.5427ZM60.9914 13.5327C61.1774 14.3577 61.1774 14.3704 60.9367 15.2462C60.4991 16.8073 58.9894 19.3077 58.4643 19.3077C58.333 19.3077 58.3877 19.1681 58.6721 18.6985C59.427 17.5054 59.9849 15.8935 60.4554 13.5708C60.5538 13.0377 60.6742 12.6188 60.7179 12.6442C60.7617 12.6696 60.882 13.0758 60.9914 13.5327ZM40.5771 15.7031C40.4239 17.0104 40.5005 18.8127 40.7521 20.2596C41.1131 22.2396 42.0102 24.3338 43.4543 26.5423L44.1873 27.6592L42.9073 26.9612C42.2072 26.5804 41.5617 26.1996 41.4742 26.1235C41.3867 26.0346 41.0803 25.4 40.7959 24.7019C39.5378 21.6304 39.2096 18.4827 39.9207 16.1219C40.1176 15.4619 40.599 14.4465 40.6755 14.5481C40.6974 14.5608 40.6537 15.0938 40.5771 15.7031ZM61.6041 16.9469L61.7135 18.6858L61.1118 19.7392C59.5364 22.4808 57.3046 24.5115 55.2479 25.07C54.5477 25.2604 53.2896 25.3492 53.4208 25.1969C53.4537 25.1588 53.8584 24.9304 54.3179 24.7019C56.3637 23.6738 58.2673 21.8715 59.4051 19.8915C59.9959 18.8762 61.1774 16.1219 61.3196 15.4619C61.3634 15.2715 61.4181 15.1319 61.4509 15.17C61.4728 15.1954 61.5494 15.995 61.6041 16.9469ZM43.892 17.8481C43.8482 18.2415 43.8044 18.2923 43.5309 18.2923C43.2027 18.2923 43.1918 18.2796 43.3887 17.1627L43.4434 16.8581L43.695 17.1373C43.881 17.3404 43.9248 17.5054 43.892 17.8481ZM44.8 18.2162C45.0078 18.4065 45.0078 18.4065 44.8109 18.4192C44.5921 18.4192 44.1983 18.0765 44.1983 17.8862C44.1983 17.7719 44.4499 17.8988 44.8 18.2162ZM50.1935 20.0946C49.8543 20.3358 49.7778 20.1962 49.7887 19.3965V18.6096L50.0622 19.295C50.2701 19.8281 50.3029 20.0058 50.1935 20.0946ZM43.148 23.3185C43.6513 24.5496 43.9576 25.0192 45.4345 26.7581L46.6379 28.1669L45.8831 27.9892C45.2704 27.8369 45.0516 27.71 44.7125 27.3292C43.7497 26.2504 42.6776 23.915 42.6667 22.8869C42.6667 22.595 42.6885 22.3538 42.7104 22.3538C42.7323 22.3538 42.9292 22.7854 43.148 23.3185ZM45.8502 25.2985C46.8458 26.06 48.2243 26.7708 49.4277 27.1388C50.3467 27.4181 50.7186 27.4688 52.294 27.4688C53.2896 27.4815 54.493 27.4054 54.9634 27.3292C55.4448 27.2404 55.8386 27.1896 55.8605 27.215C55.8714 27.2277 55.3135 27.6846 54.6133 28.2304L53.3333 29.2204L52.4034 29.1442C48.9354 28.8269 46.069 27.3038 44.8437 25.1081C44.3186 24.1688 44.3077 24.0038 44.8 24.4354C45.0078 24.6258 45.4783 25.0065 45.8502 25.2985ZM57.0858 25.6538C56.4403 26.5296 56.0246 26.6946 54.3617 26.7708C52.8629 26.8342 51.9111 26.6692 51.5063 26.2885C51.2656 26.06 51.2766 26.06 52.4034 26.1235C53.6506 26.1869 54.9415 25.9585 56.5607 25.3492C57.0092 25.1842 57.4249 25.0446 57.4687 25.0319C57.5125 25.0192 57.3484 25.2985 57.0858 25.6538Z" fill="#0040C1"/>
<path d="M35.5555 15.5V32H49.7778H64V15.5V-1H49.7778H35.5555V15.5ZM48.4978 2.23654C51.375 2.82039 53.5084 4.19115 54.6133 6.15846C54.8431 6.57731 55.029 6.95808 55.029 7.00885C55.029 7.05962 54.6243 6.76769 54.132 6.36154C52.9942 5.40962 51.5501 4.57192 50.2701 4.12769C49.4058 3.83577 49.0557 3.785 47.3709 3.73423C46.0472 3.69615 45.1501 3.73423 44.4718 3.86115C43.9357 3.96269 43.4762 4.02615 43.4543 4.01346C43.4434 4.00077 43.9904 3.55654 44.6578 3.02346L45.894 2.05885H46.7145C47.1631 2.04615 47.9617 2.135 48.4978 2.23654ZM54.5696 3.64539C55.3135 4.20385 56.7467 7.05962 56.8561 8.18923C56.9326 8.88731 56.7467 8.97616 56.5607 8.32885C56.32 7.46577 55.3135 5.90462 54.1429 4.53385C53.4865 3.77231 52.9504 3.13769 52.9504 3.11231C52.9504 3.02346 54.3508 3.48039 54.5696 3.64539ZM56.7248 4.36885L58.0376 5.15577L58.4424 6.04423C59.5583 8.50654 60.0834 11.7558 59.7224 14.0531C59.602 14.8146 58.9237 16.6423 58.7596 16.6423C58.7049 16.6423 58.7049 16.4012 58.7596 16.0965C58.9347 15.0685 58.869 12.2127 58.6502 10.9688C58.3002 9.00154 57.3702 6.80577 55.9918 4.69885C55.587 4.07692 55.2807 3.56923 55.3354 3.56923C55.3791 3.58192 56.0027 3.93731 56.7248 4.36885ZM47.36 4.64808C47.6882 4.74962 48.0273 4.91462 48.1149 5.01615C48.2461 5.16846 48.1258 5.18115 47.1412 5.13038C45.9049 5.06692 44.5484 5.30808 42.9073 5.91731C42.4478 6.08231 42.0649 6.20923 42.0431 6.18385C42.0212 6.17115 42.2509 5.85385 42.5354 5.49846C42.9511 4.95269 43.159 4.80038 43.6513 4.66077C44.4499 4.41962 46.5942 4.40692 47.36 4.64808ZM45.7846 5.96808C45.9925 6.06962 45.9925 6.06962 45.7299 6.17115C45.1173 6.38692 43.4325 7.44039 42.6229 8.11308C40.8834 9.57269 39.4721 11.7685 38.4547 14.6115C37.8749 16.2108 37.9296 16.1727 37.842 15.1192C37.8092 14.5988 37.7655 13.7612 37.7545 13.2788C37.7436 12.4031 37.7545 12.3523 38.2906 11.4131C39.9207 8.53192 42.4807 6.34885 44.6796 5.98077C45.4126 5.85385 45.522 5.85385 45.7846 5.96808ZM55.1931 15.9188L55.2697 18.8L54.6571 19.13C54.2085 19.3712 53.7272 19.4854 52.7644 19.5869L51.4735 19.7265L50.642 18.7746L49.8106 17.8227L49.9528 14.5988C50.0294 12.8219 50.095 11.3623 50.095 11.3496C50.106 11.3242 50.3685 11.1212 50.6858 10.8673C51.1562 10.5119 51.4516 10.3977 52.3487 10.2327C53.388 10.0423 54.2632 9.67423 54.7555 9.24269C54.9962 9.02692 54.9962 8.98885 55.1931 15.9188ZM47.6991 10.2327C48.826 10.4612 49.1214 10.6135 49.6027 11.1338L49.909 11.4765L49.8434 12.7585C49.8106 13.4692 49.7449 15.1573 49.7121 16.5154C49.6465 18.8381 49.6246 18.965 49.4605 18.6731C49.2198 18.2162 48.0164 16.7692 47.8851 16.7692C47.7429 16.7692 47.8961 17.8608 48.1258 18.4954C48.2352 18.7746 48.4759 19.2062 48.6728 19.46C49.001 19.8915 49.001 19.9169 48.7713 19.8662C48.629 19.8281 48.9135 19.9677 49.3949 20.1708C49.8762 20.3738 50.4561 20.6277 50.6858 20.7419L51.1125 20.9577L50.7733 20.5008C50.3795 19.9931 50.4014 19.8662 50.8827 19.79C51.1672 19.7392 51.2547 19.79 51.4297 20.12C51.5391 20.3358 51.6704 20.6912 51.7032 20.9069C51.7579 21.2623 51.8673 21.3512 52.7426 21.8208C53.5959 22.265 53.7162 22.3792 53.7162 22.6585V22.9758L53.1473 22.5188C52.8301 22.265 52.2721 21.8969 51.9002 21.6938L51.2328 21.3258L50.7514 21.5669C49.8106 22.0365 48.7931 22.265 47.9398 22.1888C47.4913 22.1508 47.0974 22.0746 47.0646 22.0365C46.8239 21.77 48.3774 21.0719 49.4386 20.9704L50.2482 20.8942L49.5808 20.615C49.2089 20.4627 48.9026 20.3865 48.9026 20.45C48.9026 20.6912 47.8523 21.0212 47.0427 21.0212C46.2222 21.0212 44.6359 20.6404 44.6359 20.45C44.6359 20.2215 45.9268 20.0438 47.174 20.0946C47.8851 20.12 48.4431 20.1327 48.4321 20.12C48.4212 20.1073 48.1696 19.9804 47.8632 19.8408C47.5679 19.7012 47.2287 19.5488 47.1084 19.4981C46.9224 19.4092 46.9224 19.4219 47.0427 19.7012C47.1631 19.955 47.1631 19.9804 47.0318 19.8662C46.9443 19.7773 46.3644 19.6885 45.7299 19.6631C44.7234 19.625 44.5155 19.5742 44.0889 19.2823C43.8154 19.1046 43.4981 18.8381 43.3887 18.6858L43.1808 18.4192H43.7278C44.2092 18.4192 44.9969 18.5462 45.5111 18.7112C45.5986 18.7365 45.6314 18.7365 45.5767 18.6985C45.533 18.6731 45.5549 18.5842 45.6314 18.5208C45.7408 18.4446 45.708 18.4319 45.533 18.4827C45.4017 18.5335 45.2923 18.5208 45.3032 18.4573C45.3361 18.3177 45.2267 18.0131 44.7781 16.9215L44.3952 15.9823L44.8 12.7331C45.0188 10.9308 45.2157 9.40769 45.2376 9.31885C45.2704 9.21731 45.5111 9.30616 45.9815 9.58539C46.4301 9.85192 47.0318 10.0804 47.6991 10.2327ZM44.8109 10.0169C44.7781 10.2073 44.6249 11.5019 44.4718 12.8981C44.3186 14.2942 44.1655 15.5127 44.1326 15.6142C44.0889 15.7665 44.0342 15.7412 43.8482 15.5381L43.6184 15.2715L43.9685 12.4919C44.1655 10.9688 44.3405 9.64885 44.3624 9.56C44.4061 9.43308 44.4718 9.43308 44.6359 9.53462C44.8109 9.64885 44.8547 9.76308 44.8109 10.0169ZM56.0137 14.8273C56.1231 17.5308 56.1778 19.79 56.1449 19.8281C55.9043 20.0819 55.1494 20.1962 53.6834 20.1962C52.7754 20.1962 52.0643 20.1708 52.0861 20.1454C52.108 20.1073 52.6222 19.9931 53.2239 19.8788C54.6461 19.6123 55.0837 19.46 55.3682 19.1046L55.5979 18.8127L55.4776 14.4592C55.3573 10.3977 55.3573 10.0931 55.5323 9.95346C55.6417 9.86462 55.7511 9.81385 55.773 9.85192C55.7949 9.87731 55.9152 12.1238 56.0137 14.8273ZM43.9138 10.2835C44.0123 10.4738 43.4653 14.9162 43.334 14.9669C43.2684 14.9923 43.4872 15.2969 43.8154 15.6523C44.428 16.2996 44.428 16.2996 44.3514 16.8835C44.3077 17.2008 44.2639 17.4927 44.242 17.5181C44.1764 17.6069 43.7497 17.1119 43.5309 16.7185C43.3012 16.2742 43.2902 16.2996 43.1043 17.7719C42.9839 18.7746 42.9949 18.8508 43.1918 19.0919C43.3121 19.2315 43.6731 19.4473 43.9904 19.5742L44.5812 19.8027H44.0342C43.4872 19.8154 42.6557 19.4727 42.5026 19.1808C42.4588 19.1046 42.5354 18.1781 42.6776 17.1373C42.8089 16.0965 42.962 15.3096 42.9949 15.3858C43.0386 15.4619 43.0933 15.3858 43.1261 15.1954C43.159 15.0177 43.1371 14.8273 43.0933 14.7765C42.9402 14.5988 43.5528 10.1692 43.7169 10.1692C43.7935 10.1692 43.881 10.22 43.9138 10.2835ZM56.5716 10.7023C56.5716 10.7277 56.6591 12.9362 56.7795 15.6269C56.9545 20.0819 56.9655 20.5262 56.8014 20.6658C56.681 20.78 56.2543 20.8308 55.4776 20.8181C53.8584 20.7927 53.3661 20.6404 54.6461 20.5642C55.2807 20.5135 55.7839 20.4119 56.0574 20.2596L56.4841 20.0185L56.4075 18.4319C56.3747 17.5562 56.309 15.4492 56.2762 13.7485C56.2106 10.9435 56.2106 10.6769 56.3856 10.6769C56.4841 10.6769 56.5607 10.6896 56.5716 10.7023ZM40.8615 12.5427C40.1176 13.685 39.2314 16.3123 39.0017 18.0765C38.9579 18.4065 38.8814 18.6731 38.8376 18.6731C38.6735 18.6731 38.3781 17.0358 38.4547 16.5281C38.6078 15.4492 39.7566 13.1265 40.5333 12.3523C41.146 11.7177 41.332 11.8319 40.8615 12.5427ZM60.9914 13.5327C61.1774 14.3577 61.1774 14.3704 60.9367 15.2462C60.4991 16.8073 58.9894 19.3077 58.4643 19.3077C58.333 19.3077 58.3877 19.1681 58.6721 18.6985C59.427 17.5054 59.9849 15.8935 60.4554 13.5708C60.5538 13.0377 60.6742 12.6188 60.7179 12.6442C60.7617 12.6696 60.882 13.0758 60.9914 13.5327ZM40.5771 15.7031C40.4239 17.0104 40.5005 18.8127 40.7521 20.2596C41.1131 22.2396 42.0102 24.3338 43.4543 26.5423L44.1873 27.6592L42.9073 26.9612C42.2072 26.5804 41.5617 26.1996 41.4742 26.1235C41.3867 26.0346 41.0803 25.4 40.7959 24.7019C39.5378 21.6304 39.2096 18.4827 39.9207 16.1219C40.1176 15.4619 40.599 14.4465 40.6755 14.5481C40.6974 14.5608 40.6537 15.0938 40.5771 15.7031ZM61.6041 16.9469L61.7135 18.6858L61.1118 19.7392C59.5364 22.4808 57.3046 24.5115 55.2479 25.07C54.5477 25.2604 53.2896 25.3492 53.4208 25.1969C53.4537 25.1588 53.8584 24.9304 54.3179 24.7019C56.3637 23.6738 58.2673 21.8715 59.4051 19.8915C59.9959 18.8762 61.1774 16.1219 61.3196 15.4619C61.3634 15.2715 61.4181 15.1319 61.4509 15.17C61.4728 15.1954 61.5494 15.995 61.6041 16.9469ZM43.892 17.8481C43.8482 18.2415 43.8044 18.2923 43.5309 18.2923C43.2027 18.2923 43.1918 18.2796 43.3887 17.1627L43.4434 16.8581L43.695 17.1373C43.881 17.3404 43.9248 17.5054 43.892 17.8481ZM44.8 18.2162C45.0078 18.4065 45.0078 18.4065 44.8109 18.4192C44.5921 18.4192 44.1983 18.0765 44.1983 17.8862C44.1983 17.7719 44.4499 17.8988 44.8 18.2162ZM50.1935 20.0946C49.8543 20.3358 49.7778 20.1962 49.7887 19.3965V18.6096L50.0622 19.295C50.2701 19.8281 50.3029 20.0058 50.1935 20.0946ZM43.148 23.3185C43.6513 24.5496 43.9576 25.0192 45.4345 26.7581L46.6379 28.1669L45.8831 27.9892C45.2704 27.8369 45.0516 27.71 44.7125 27.3292C43.7497 26.2504 42.6776 23.915 42.6667 22.8869C42.6667 22.595 42.6885 22.3538 42.7104 22.3538C42.7323 22.3538 42.9292 22.7854 43.148 23.3185ZM45.8502 25.2985C46.8458 26.06 48.2243 26.7708 49.4277 27.1388C50.3467 27.4181 50.7186 27.4688 52.294 27.4688C53.2896 27.4815 54.493 27.4054 54.9634 27.3292C55.4448 27.2404 55.8386 27.1896 55.8605 27.215C55.8714 27.2277 55.3135 27.6846 54.6133 28.2304L53.3333 29.2204L52.4034 29.1442C48.9354 28.8269 46.069 27.3038 44.8437 25.1081C44.3186 24.1688 44.3077 24.0038 44.8 24.4354C45.0078 24.6258 45.4783 25.0065 45.8502 25.2985ZM57.0858 25.6538C56.4403 26.5296 56.0246 26.6946 54.3617 26.7708C52.8629 26.8342 51.9111 26.6692 51.5063 26.2885C51.2656 26.06 51.2766 26.06 52.4034 26.1235C53.6506 26.1869 54.9415 25.9585 56.5607 25.3492C57.0092 25.1842 57.4249 25.0446 57.4687 25.0319C57.5125 25.0192 57.3484 25.2985 57.0858 25.6538Z" fill="#0040C1"/>
</g>
<g clip-path="url(#clip1_451_23)">
<path d="M2.21295 27.6193L5.53694 31.9999L8.44953 29.1269L7.50387 27.8804L5.36586 29.9886L3.93005 28.0961L6.06802 25.988L5.12551 24.7462L2.21295 27.6193Z" fill="black"/>
<path d="M3.41791 23.1372L4.57244 22.749L4.96603 24.3429L1.27679 25.5824L0.41929 22.1018C0.0393448 20.558 0.471769 19.9389 1.15399 19.7115L1.23376 19.6847C1.90233 19.4596 2.58036 19.7244 2.95611 21.2518L3.41791 23.1372ZM2.49534 23.4474L2.07551 21.752C1.98525 21.3871 1.81207 21.2693 1.60846 21.3381H1.59376C1.38385 21.4092 1.29358 21.6028 1.38385 21.9782L1.80367 23.6736L2.49534 23.4474Z" fill="black"/>
<path d="M0.0863343 15.1965C0.401206 12.4051 1.61556 12.1964 2.33032 12.2885L2.48251 12.3083C3.19202 12.4005 4.34655 12.9088 4.02643 15.7073L3.99704 15.9743C3.68217 18.7727 2.44157 18.9779 1.73207 18.8893L1.57463 18.8613C0.864065 18.7727 -0.264223 18.2631 0.0558967 15.4589L0.0863343 15.1965ZM2.16974 14.0025C1.7667 13.9513 1.23771 14.1833 1.09182 15.4635C0.942785 16.766 1.4067 17.1041 1.80973 17.1555L1.87061 17.1636C2.26945 17.2149 2.83936 16.9875 2.98525 15.7084C3.13114 14.4293 2.65044 14.0655 2.2411 14.0119L2.16974 14.0025Z" fill="black"/>
<path d="M2.77816 7.60233L3.6829 6.28125L3.95684 6.52262L4.55299 5.65277C5.30133 4.55906 6.19348 4.23607 6.94708 4.90303L7.01215 4.96016C7.77096 5.62596 7.73422 6.6812 6.98276 7.7784L6.38347 8.65293L6.76759 8.98986L5.86286 10.311L5.47872 9.974L4.88046 10.8439C4.12897 11.9411 3.23578 12.2431 2.47694 11.5785L2.41501 11.526C1.66457 10.866 1.7118 9.80493 2.46014 8.7124L3.0563 7.84253L2.77816 7.60233ZM3.40791 9.10533C3.0668 9.60206 3.09828 9.981 3.35333 10.2037L3.37747 10.2259C3.63566 10.4521 3.97468 10.4008 4.31579 9.90286L4.72407 9.29773L3.81829 8.5002L3.40791 9.10533ZM5.62145 7.99526L6.03496 7.39126C6.37612 6.8934 6.33624 6.50862 6.07805 6.28125L6.05387 6.26026C5.79883 6.03639 5.46717 6.09586 5.12711 6.59374L4.70728 7.19893L5.62145 7.99526Z" fill="black"/>
<path d="M11.0314 0.745117L11.4082 1.71174L8.85246 3.03866L9.04559 3.53304L11.5488 2.23294L11.9246 3.19374L9.42028 4.49384L9.63231 5.03603L12.2247 3.68929L12.61 4.67807L8.69922 6.70926L7.15741 2.75648L11.0314 0.745117Z" fill="black"/>
<path d="M15.1869 4.53246C12.8379 4.66422 12.4423 3.32564 12.4181 2.50243V2.33219C12.393 1.50316 12.6721 0.158748 15.0578 0.0223248L15.2583 0.0106647C17.582 -0.121095 17.9567 1.06008 17.9735 1.61743V1.69322L16.4569 1.78067C16.4222 1.66407 16.2879 1.12304 15.1774 1.186C14.1279 1.24547 13.918 1.79 13.9274 2.27506V2.34502C13.941 2.81142 14.2171 3.41192 15.2446 3.35362C16.3708 3.28949 16.4663 2.66917 16.4831 2.56773L17.9945 2.48261V2.57589C18.0113 3.14257 17.688 4.3902 15.3842 4.5208L15.1869 4.53246Z" fill="black"/>
<path d="M20.1538 5.68901C18.1103 4.4064 18.3947 3.01418 18.7537 2.28893L18.8282 2.14084C19.1893 1.41209 20.0447 0.420975 22.1197 1.72574L22.2939 1.83535C24.3164 3.1063 24.0897 4.3446 23.8442 4.83783L23.8116 4.90429L22.4923 4.07409C22.5164 3.95749 22.6529 3.40713 21.6873 2.79963C20.77 2.22363 20.3417 2.56643 20.1297 2.99319L20.0993 3.05499C19.8956 3.46543 19.8516 4.14521 20.7468 4.70723C21.7261 5.32289 22.0924 4.84599 22.1532 4.77019L23.4663 5.59689L23.4254 5.67968C23.1777 6.17757 22.3307 7.05911 20.326 5.79629L20.1538 5.68901Z" fill="black"/>
<path d="M26.3344 9.8564L23.1384 8.6134L22.5139 7.1244L25.9733 5.20166L26.5968 6.69067L24.421 7.901L27.6211 9.14047L28.2446 10.6306L24.7873 12.5522L24.1628 11.0632L26.3344 9.8564Z" fill="black"/>
<path d="M28.3834 16.2775C28.1221 19.0759 26.914 19.3149 26.2014 19.2415L26.0481 19.2251C25.3365 19.1529 24.1736 18.6748 24.436 15.8741L24.4602 15.6117C24.7226 12.8039 25.9527 12.5707 26.6642 12.643L26.8175 12.6593C27.5333 12.7328 28.671 13.2074 28.4086 16.0151L28.3834 16.2775ZM26.3252 17.5251C26.7293 17.5671 27.253 17.3199 27.3748 16.0385C27.4965 14.7337 27.0263 14.4061 26.6233 14.3687L26.5614 14.3617C26.1626 14.3209 25.5979 14.5635 25.4782 15.8449C25.3586 17.1263 25.8466 17.4773 26.2559 17.5181L26.3252 17.5251Z" fill="black"/>
<path d="M27.0842 21.7951L26.0934 23.0369L25.0983 22.0119L23.4768 24.0431L24.4728 25.0681L23.4862 26.304L20.6713 23.4077L21.6579 22.1705L22.7284 23.2724L24.349 21.2412L23.2784 20.1393L24.2682 18.8987L27.0842 21.7951Z" fill="black"/>
<path d="M16.785 25.0308L18.9324 24.5294L19.1067 23.775L20.5624 23.4369L19.4079 28.1336L17.4777 28.5836L14.8055 24.7778L16.3799 24.4117L16.785 25.0308ZM18.2975 27.308L18.6701 25.6978L17.4221 25.9893L18.2975 27.308Z" fill="black"/>
<path d="M10.1238 24.9071L11.3833 25.9787C12.3079 24.5795 12.6836 24.2111 13.0468 24.049C13.4099 23.8869 13.7815 23.9417 14.3336 24.4151L14.7093 24.7334L14.047 25.7327L13.9862 25.6802C13.8224 25.5415 13.7154 25.4797 13.5747 25.5298C13.348 25.6009 13.0499 25.9519 11.8409 27.7744L8.36572 24.8197L10.6905 21.3217L11.8514 22.3081L10.1238 24.9071Z" fill="black"/>
<path d="M8.00231 16.7089L10.4331 19.3628L10.4499 21.0232L6.62424 21.1468L6.60634 19.4864L9.01304 19.4083L6.57802 16.7545L6.56018 15.0941L10.3869 14.9705L10.4037 16.6309L8.00231 16.7089Z" fill="black"/>
<path d="M9.85187 11.9412L8.52517 13.085L7.90277 12.1417L11.7296 8.84302L12.3509 9.78522L11.0242 10.929L12.6836 13.4406L11.5091 14.4516L9.85187 11.9412Z" fill="black"/>
<path d="M17.8129 8.46522L17.7709 9.52976L14.9801 9.43996L14.9581 9.98336L17.6932 10.072L17.6513 11.1307L14.9171 11.0421L14.8941 11.6391L17.7258 11.73L17.6827 12.8191L13.412 12.6815L13.5821 8.32996L17.8129 8.46522Z" fill="black"/>
<path d="M20.3415 11.6647L19.295 10.2317L20.1022 9.46448L23.1218 13.5968L22.3146 14.364L21.2672 12.9322L19.1156 14.9773L18.1898 13.7111L20.3415 11.6647Z" fill="black"/>
</g>
<defs>
<clipPath id="clip0_451_23">
<rect width="28.4444" height="32" fill="white" transform="translate(35.5555)"/>
</clipPath>
<clipPath id="clip1_451_23">
<rect width="28.4444" height="32" fill="white"/>
</clipPath>
</defs>
</svg>
